<?xml version="1.0" standalone="no"?>
<!DOCTYPE svg PUBLIC "-//W3C//DTD SVG 20010904//EN"
 "http://www.w3.org/TR/2001/REC-SVG-20010904/DTD/svg10.dtd">
<svg version="1.0" xmlns="http://www.w3.org/2000/svg"
 width="400.000000pt" height="400.000000pt" viewBox="0 0 400.000000 400.000000"
 preserveAspectRatio="xMidYMid meet">
<metadata>
Created by potrace 1.11, written by Peter Selinger 2001-2013
</metadata>
<g transform="translate(0.000000,400.000000) scale(0.100000,-0.100000)"
fill="#000000" stroke="none">
<path d="M1828 3995 c-1 -1 -28 -6 -58 -9 -30 -4 -66 -8 -80 -11 -40 -7 -113
-23 -140 -30 -14 -3 -38 -8 -55 -10 -27 -4 -198 -56 -235 -72 -8 -3 -17 -7
-20 -8 -55 -14 -382 -198 -400 -225 -3 -4 -10 -9 -17 -11 -46 -15 -333 -290
-382 -364 -14 -22 -32 -46 -39 -54 -17 -18 -92 -128 -92 -136 0 -7 -38 -63
-64 -92 -11 -13 -17 -23 -13 -23 5 0 -33 -86 -99 -225 -16 -33 -70 -221 -79
-274 -3 -19 -8 -38 -11 -42 -3 -5 -7 -25 -9 -46 -3 -21 -11 -83 -19 -138 -13
-92 -15 -386 -3 -440 4 -19 15 -86 22 -145 13 -97 70 -297 112 -390 13 -30 38
-86 56 -125 17 -38 48 -96 69 -127 21 -32 38 -60 38 -63 0 -10 82 -135 88
-135 4 0 13 -13 20 -28 13 -31 229 -254 307 -318 51 -41 178 -131 243 -172
102 -63 339 -168 432 -191 19 -5 60 -16 90 -24 50 -13 103 -24 155 -33 11 -1
31 -5 45 -8 122 -28 482 -28 620 -1 50 10 116 23 140 30 14 3 39 8 55 10 62 9
254 79 365 132 148 71 295 167 435 283 58 49 247 246 271 283 14 21 32 45 42
55 18 18 56 73 57 82 0 3 18 32 39 65 34 52 71 126 147 290 18 40 71 207 74
235 1 8 4 24 8 35 3 11 8 31 11 45 4 27 13 76 21 125 16 90 20 155 20 300 0
147 -8 272 -19 306 -3 8 -7 32 -10 54 -6 43 -14 80 -16 80 -1 0 -3 11 -5 25
-9 65 -56 224 -83 282 -11 24 -39 84 -62 133 -43 92 -96 184 -115 197 -5 4 -7
8 -2 8 10 0 -18 42 -70 108 -24 29 -43 56 -43 60 0 10 -192 205 -265 271 -33
29 -100 81 -150 115 -49 33 -92 63 -95 66 -39 39 -354 182 -460 209 -19 5 -60
16 -90 24 -30 8 -75 18 -100 23 -25 4 -47 8 -50 9 -3 1 -27 5 -55 10 -27 4
-59 10 -70 12 -23 6 -401 13 -407 8z"/>
</g>
</svg>
